<svg xmlns="http://www.w3.org/2000/svg" viewBox="0 0 360 360" role="img" aria-label="Rakete">
  <rect width="360" height="360" fill="#1B2A4A"/>
  <circle cx="60" cy="60" r="4" fill="#FFFFFF"/>
  <circle cx="120" cy="40" r="3" fill="#FFFFFF"/>
  <circle cx="200" cy="80" r="5" fill="#FFFFFF"/>
  <circle cx="280" cy="50" r="3" fill="#FFFFFF"/>
  <circle cx="320" cy="120" r="4" fill="#FFFFFF"/>
  <circle cx="90" cy="140" r="3" fill="#FFFFFF"/>
  <circle cx="250" cy="160" r="4" fill="#FFFFFF"/>
  <path d="M180 40 210 140 150 140Z" fill="#E85D4C"/>
  <rect x="150" y="140" width="60" height="110" rx="8" fill="#F4F1EA"/>
  <circle cx="180" cy="175" r="16" fill="#4A90D9"/>
  <circle cx="180" cy="175" r="10" fill="#A8D5F5"/>
  <path d="M150 200 120 240 150 230Z" fill="#E85D4C"/>
  <path d="M210 200 240 240 210 230Z" fill="#E85D4C"/>
  <path d="M160 250 180 320 200 250Z" fill="#F2C14E"/>
  <path d="M168 250 180 290 192 250Z" fill="#E85D4C"/>
  <rect x="40" y="300" width="40" height="8" rx="4" fill="#FFFFFF" opacity="0.5"/>
  <rect x="280" y="280" width="50" height="6" rx="3" fill="#FFFFFF" opacity="0.4"/>
</svg>
